<svg xmlns="http://www.w3.org/2000/svg" viewBox="0 0 44 44">
  <defs>
    <linearGradient id="g1" x1="10" y1="4" x2="34" y2="37" gradientUnits="userSpaceOnUse">
      <stop stop-color="#D63FA3"/><stop offset="0.5" stop-color="#FF5C1A"/><stop offset="1" stop-color="#F4B942"/>
    </linearGradient>
    <linearGradient id="g2" x1="18" y1="21" x2="26" y2="37" gradientUnits="userSpaceOnUse">
      <stop stop-color="#FF5C1A"/><stop offset="1" stop-color="#F4B942"/>
    </linearGradient>
  </defs>
  <path d="M22 4C22 4 10 14 10 24C10 31 15.4 37 22 37C28.6 37 34 31 34 24C34 14 22 4 22 4Z" fill="url(#g1)"/>
  <path d="M22 37C22 37 18 32 18 27C18 23.7 19.8 21 22 21C24.2 21 26 23.7 26 27C26 32 22 37 22 37Z" fill="url(#g2)" opacity="0.85"/>
</svg>
